<?xml version="1.0" encoding="UTF-8" standalone="no"?>
<svg width="184px" height="19px" viewBox="0 0 184 19" version="1.1" xmlns="http://www.w3.org/2000/svg" xmlns:xlink="http://www.w3.org/1999/xlink">
    <title>Rootstrap Logo</title>
    <defs>
        <polygon id="path-1" points="10.1101 13 0.5311 13 0.5311 0.5733 10.1101 0.5733 10.1101 13"></polygon>
        <polygon id="path-3" points="10.4684 13 0.8904 13 0.8904 0.5733 10.4684 0.5733 10.4684 13"></polygon>
    </defs>
    <g id="Symbols" stroke="none" stroke-width="1" fill="none" fill-rule="evenodd">
        <g id="Menu-2" transform="translate(-58.000000, -31.000000)">
            <g id="Group-2" transform="translate(58.000000, 31.000000)">
                <path d="M41.5684887,0 L26.896777,14.4715109 C24.5477188,8.33052799 18.1150344,4.69369882 11.5555585,5.7980882 C4.99608265,6.90247758 0.150753001,12.4381351 0,19 L4.85736063,19 C5.0263132,14.3149309 8.84203082,10.5576965 13.5921952,10.3990438 C18.3423595,10.240391 22.4070126,13.7344255 22.8968859,18.3974902 L22.8495209,18.4538749 C22.9262848,18.6633034 22.9409843,18.8389011 22.9458841,19 L29.0951655,19 L45,3.34763439 L41.5684887,0 Z" id="Shape" fill="#161616" fill-rule="nonzero"></path>
                <g id="Page-1" transform="translate(65.000000, 3.000000)">
                    <path d="M4.5562,6.834 L1.6392,6.834 L1.6392,2.726 L4.5562,2.726 C5.4192,2.726 6.0692,2.884 6.5062,3.201 C6.9442,3.517 7.1622,4.032 7.1622,4.745 C7.1622,6.138 6.2932,6.834 4.5562,6.834 L4.5562,6.834 Z M6.3172,8.146 C7.0772,7.904 7.6802,7.501 8.1292,6.938 C8.5772,6.374 8.8022,5.643 8.8022,4.745 C8.8022,3.549 8.4102,2.654 7.6282,2.062 C6.8462,1.469 5.8512,1.173 4.6432,1.173 L0.4662,1.173 C0.3392,1.173 0.2302,1.219 0.1382,1.311 C0.0452,1.403 0.0002,1.512 0.0002,1.639 L0.0002,12.788 C0.0002,12.915 0.0452,13.024 0.1382,13.116 C0.2302,13.208 0.3392,13.254 0.4662,13.254 L1.1732,13.254 C1.3002,13.254 1.4102,13.208 1.5012,13.116 C1.5932,13.024 1.6392,12.915 1.6392,12.788 L1.6392,8.387 L4.6082,8.387 L7.1112,12.788 C7.2842,13.099 7.5312,13.254 7.8532,13.254 L8.5952,13.254 C8.6992,13.254 8.7872,13.217 8.8632,13.142 C8.9372,13.067 8.9752,12.978 8.9752,12.874 C8.9752,12.817 8.9572,12.753 8.9222,12.685 L6.3172,8.146 Z" id="Fill-1" fill="#010202"></path>
                    <g id="Group-5" transform="translate(13.000000, 0.426800)">
                        <mask id="mask-2" fill="white">
                            <use xlink:href="#path-1"></use>
                        </mask>
                        <g id="Clip-4"></g>
                        <path d="M8.4351,8.2363 C8.4011,9.2953 8.1011,10.0943 7.5381,10.6353 C6.9741,11.1763 6.2321,11.4463 5.3111,11.4463 C4.3911,11.4463 3.6491,11.1763 3.0841,10.6353 C2.5211,10.0943 2.2221,9.2953 2.1871,8.2363 C2.1761,7.8913 2.1701,7.4083 2.1701,6.7863 C2.1701,6.1653 2.1761,5.6823 2.1871,5.3373 C2.2221,4.2783 2.5211,3.4793 3.0841,2.9383 C3.6491,2.3973 4.3911,2.1273 5.3111,2.1273 C6.2321,2.1273 6.9741,2.3973 7.5381,2.9383 C8.1011,3.4793 8.4011,4.2783 8.4351,5.3373 C8.4581,6.0273 8.4701,6.5103 8.4701,6.7863 C8.4701,7.0633 8.4581,7.5463 8.4351,8.2363 M9.4801,2.8773 C9.1061,2.1703 8.5621,1.6093 7.8481,1.1943 C7.1351,0.7803 6.2891,0.5733 5.3111,0.5733 C4.3331,0.5733 3.4881,0.7803 2.7741,1.1943 C2.0611,1.6093 1.5171,2.1703 1.1431,2.8773 C0.7691,3.5853 0.5711,4.3763 0.5481,5.2513 C0.5371,5.5953 0.5311,6.1083 0.5311,6.7863 C0.5311,7.4653 0.5371,7.9773 0.5481,8.3223 C0.5821,9.1973 0.7871,9.9883 1.1611,10.6953 C1.5351,11.4033 2.0761,11.9643 2.7831,12.3783 C3.4911,12.7933 4.3331,13.0003 5.3111,13.0003 C6.2891,13.0003 7.1321,12.7933 7.8391,12.3783 C8.5471,11.9643 9.0881,11.4033 9.4621,10.6953 C9.8361,9.9883 10.0401,9.1973 10.0751,8.3223 C10.0981,7.6323 10.1101,7.1203 10.1101,6.7863 C10.1101,6.4533 10.0981,5.9413 10.0751,5.2513 C10.0511,4.3763 9.8531,3.5853 9.4801,2.8773" id="Fill-3" fill="#010202" mask="url(#mask-2)"></path>
                    </g>
                    <g id="Group-8" transform="translate(27.000000, 0.426800)">
                        <mask id="mask-4" fill="white">
                            <use xlink:href="#path-3"></use>
                        </mask>
                        <g id="Clip-7"></g>
                        <path d="M8.7944,8.2363 C8.7604,9.2953 8.4614,10.0943 7.8974,10.6353 C7.3334,11.1763 6.5914,11.4463 5.6704,11.4463 C4.7504,11.4463 4.0084,11.1763 3.4444,10.6353 C2.8804,10.0943 2.5814,9.2953 2.5474,8.2363 C2.5354,7.8913 2.5294,7.4083 2.5294,6.7863 C2.5294,6.1653 2.5354,5.6823 2.5474,5.3373 C2.5814,4.2783 2.8804,3.4793 3.4444,2.9383 C4.0084,2.3973 4.7504,2.1273 5.6704,2.1273 C6.5914,2.1273 7.3334,2.3973 7.8974,2.9383 C8.4614,3.4793 8.7604,4.2783 8.7944,5.3373 C8.8174,6.0273 8.8294,6.5103 8.8294,6.7863 C8.8294,7.0633 8.8174,7.5463 8.7944,8.2363 M9.8384,2.8773 C9.4644,2.1703 8.9214,1.6093 8.2074,1.1943 C7.4944,0.7803 6.6484,0.5733 5.6704,0.5733 C4.6924,0.5733 3.8474,0.7803 3.1334,1.1943 C2.4204,1.6093 1.8764,2.1703 1.5024,2.8773 C1.1284,3.5853 0.9304,4.3763 0.9074,5.2513 C0.8964,5.5953 0.8904,6.1083 0.8904,6.7863 C0.8904,7.4653 0.8964,7.9773 0.9074,8.3223 C0.9414,9.1973 1.1464,9.9883 1.5204,10.6953 C1.8944,11.4033 2.4354,11.9643 3.1424,12.3783 C3.8504,12.7933 4.6924,13.0003 5.6704,13.0003 C6.6484,13.0003 7.4914,12.7933 8.1994,12.3783 C8.9064,11.9643 9.4474,11.4033 9.8214,10.6953 C10.1954,9.9883 10.3994,9.1973 10.4344,8.3223 C10.4574,7.6323 10.4684,7.1203 10.4684,6.7863 C10.4684,6.4533 10.4574,5.9413 10.4344,5.2513 C10.4104,4.3763 10.2124,3.5853 9.8384,2.8773" id="Fill-6" fill="#010202" mask="url(#mask-4)"></path>
                    </g>
                    <path d="M49.895,1.1729 L41.8,1.1729 C41.674,1.1729 41.565,1.2189 41.473,1.3109 C41.38,1.4029 41.334,1.5119 41.334,1.6389 L41.334,2.2599 C41.334,2.3869 41.38,2.4959 41.473,2.5879 C41.565,2.6799 41.674,2.7259 41.8,2.7259 L45.028,2.7259 L45.028,12.7879 C45.028,12.9149 45.074,13.0239 45.166,13.1159 C45.258,13.2079 45.368,13.2539 45.495,13.2539 L46.202,13.2539 C46.329,13.2539 46.437,13.2079 46.53,13.1159 C46.622,13.0239 46.667,12.9149 46.667,12.7879 L46.667,2.7259 L49.895,2.7259 C50.022,2.7259 50.13,2.6799 50.223,2.5879 C50.315,2.4959 50.361,2.3869 50.361,2.2599 L50.361,1.6389 C50.361,1.5119 50.315,1.4029 50.223,1.3109 C50.13,1.2189 50.022,1.1729 49.895,1.1729" id="Fill-9" fill="#010202"></path>
                    <path d="M59.7329,6.5918 C58.7659,6.3398 58.0439,6.1238 57.5659,5.9448 C57.0879,5.7668 56.7319,5.5538 56.4969,5.3058 C56.2599,5.0588 56.1429,4.7398 56.1429,4.3488 C56.1429,3.7738 56.3809,3.3298 56.8589,3.0198 C57.3369,2.7088 57.9209,2.5538 58.6109,2.5538 C59.3589,2.5538 59.9599,2.7258 60.4149,3.0708 C60.8689,3.4168 61.1879,3.7678 61.3729,4.1238 C61.4529,4.2738 61.5279,4.3738 61.5959,4.4258 C61.6659,4.4778 61.7689,4.5038 61.9069,4.5038 L62.6149,4.5038 C62.7179,4.5038 62.8099,4.4668 62.8909,4.3918 C62.9709,4.3168 63.0049,4.2278 62.9949,4.1238 C62.9709,3.7098 62.7819,3.2558 62.4249,2.7608 C62.0679,2.2658 61.5619,1.8488 60.9059,1.5088 C60.2509,1.1698 59.4849,0.9998 58.6109,0.9998 C57.7359,0.9998 56.9889,1.1558 56.3669,1.4668 C55.7459,1.7768 55.2799,2.1858 54.9689,2.6918 C54.6589,3.1978 54.5039,3.7508 54.5039,4.3488 C54.5039,5.1548 54.7509,5.8298 55.2459,6.3768 C55.7399,6.9228 56.5449,7.3408 57.6619,7.6278 C58.6849,7.8928 59.4619,8.1138 59.9919,8.2918 C60.5209,8.4708 60.9379,8.6888 61.2429,8.9478 C61.5469,9.2068 61.6999,9.5268 61.6999,9.9058 C61.6999,10.4928 61.4089,10.9668 60.8289,11.3298 C60.2479,11.6928 59.5369,11.8728 58.6969,11.8728 C57.8569,11.8728 57.1929,11.7008 56.7039,11.3558 C56.2139,11.0098 55.8779,10.6308 55.6939,10.2168 C55.6249,10.0668 55.5499,9.9668 55.4689,9.9148 C55.3889,9.8628 55.2859,9.8368 55.1589,9.8368 L54.4519,9.8368 C54.3479,9.8368 54.2579,9.8738 54.1839,9.9488 C54.1089,10.0238 54.0719,10.1128 54.0719,10.2168 C54.0939,10.7118 54.3069,11.2088 54.7109,11.7098 C55.1129,12.2098 55.6659,12.6218 56.3669,12.9438 C57.0689,13.2658 57.8449,13.4268 58.6969,13.4268 C59.6179,13.4268 60.4279,13.2768 61.1299,12.9778 C61.8329,12.6788 62.3759,12.2648 62.7609,11.7358 C63.1469,11.2058 63.3389,10.5958 63.3389,9.9058 C63.3389,9.0428 63.0659,8.3618 62.5199,7.8608 C61.9729,7.3608 61.0449,6.9378 59.7329,6.5918" id="Fill-11" fill="#010202"></path>
                    <path d="M75.645,1.1729 L67.551,1.1729 C67.424,1.1729 67.315,1.2189 67.223,1.3109 C67.13,1.4029 67.084,1.5119 67.084,1.6389 L67.084,2.2599 C67.084,2.3869 67.13,2.4959 67.223,2.5879 C67.315,2.6799 67.424,2.7259 67.551,2.7259 L70.778,2.7259 L70.778,12.7879 C70.778,12.9149 70.825,13.0239 70.916,13.1159 C71.008,13.2079 71.118,13.2539 71.245,13.2539 L71.952,13.2539 C72.079,13.2539 72.188,13.2079 72.28,13.1159 C72.372,13.0239 72.417,12.9149 72.417,12.7879 L72.417,2.7259 L75.645,2.7259 C75.772,2.7259 75.881,2.6799 75.973,2.5879 C76.065,2.4959 76.112,2.3869 76.112,2.2599 L76.112,1.6389 C76.112,1.5119 76.065,1.4029 75.973,1.3109 C75.881,1.2189 75.772,1.1729 75.645,1.1729" id="Fill-13" fill="#010202"></path>
                    <path d="M85.3101,6.834 L82.3931,6.834 L82.3931,2.726 L85.3101,2.726 C86.1731,2.726 86.8231,2.884 87.2601,3.201 C87.6981,3.517 87.9161,4.032 87.9161,4.745 C87.9161,6.138 87.0471,6.834 85.3101,6.834 L85.3101,6.834 Z M87.0711,8.146 C87.8301,7.904 88.4341,7.501 88.8821,6.938 C89.3311,6.374 89.5561,5.643 89.5561,4.745 C89.5561,3.549 89.1641,2.654 88.3821,2.062 C87.5991,1.469 86.6051,1.173 85.3961,1.173 L81.2191,1.173 C81.0931,1.173 80.9841,1.219 80.8921,1.311 C80.7991,1.403 80.7531,1.512 80.7531,1.639 L80.7531,12.788 C80.7531,12.915 80.7991,13.024 80.8921,13.116 C80.9841,13.208 81.0931,13.254 81.2191,13.254 L81.9271,13.254 C82.0541,13.254 82.1631,13.208 82.2551,13.116 C82.3471,13.024 82.3931,12.915 82.3931,12.788 L82.3931,8.387 L85.3621,8.387 L87.8651,12.788 C88.0371,13.099 88.2841,13.254 88.6071,13.254 L89.3481,13.254 C89.4521,13.254 89.5411,13.217 89.6161,13.142 C89.6911,13.067 89.7281,12.978 89.7281,12.874 C89.7281,12.817 89.7111,12.753 89.6761,12.685 L87.0711,8.146 Z" id="Fill-15" fill="#010202"></path>
                    <path d="M96.7349,8.9737 L99.1339,2.8127 L101.5159,8.9737 L96.7349,8.9737 Z M100.4279,1.7427 C100.2789,1.3627 100.0199,1.1727 99.6519,1.1727 L98.6169,1.1727 C98.2489,1.1727 97.9889,1.3627 97.8399,1.7427 L93.6119,12.6327 C93.5649,12.7367 93.5429,12.8167 93.5429,12.8737 C93.5429,12.9777 93.5799,13.0677 93.6549,13.1417 C93.7289,13.2167 93.8189,13.2537 93.9219,13.2537 L94.5609,13.2537 C94.9059,13.2537 95.1309,13.1107 95.2339,12.8227 L96.1309,10.5277 L102.1199,10.5277 L103.0169,12.8227 C103.1209,13.1107 103.3449,13.2537 103.6909,13.2537 L104.3289,13.2537 C104.4329,13.2537 104.5219,13.2167 104.5959,13.1417 C104.6719,13.0677 104.7089,12.9777 104.7089,12.8737 C104.7089,12.8167 104.6859,12.7367 104.6399,12.6327 L100.4279,1.7427 Z" id="Fill-17" fill="#010202"></path>
                    <path d="M115.9097,6.4624 C115.4617,6.8254 114.8167,7.0064 113.9767,7.0064 L110.8877,7.0064 L110.8877,2.7264 L113.9767,2.7264 C115.7147,2.7264 116.5827,3.4284 116.5827,4.8314 C116.5827,5.5564 116.3577,6.1004 115.9097,6.4624 M117.0407,2.1054 C116.2517,1.4834 115.2597,1.1724 114.0627,1.1724 L109.7137,1.1724 C109.5867,1.1724 109.4777,1.2184 109.3867,1.3114 C109.2937,1.4034 109.2477,1.5124 109.2477,1.6384 L109.2477,12.7884 C109.2477,12.9154 109.2937,13.0244 109.3867,13.1164 C109.4777,13.2084 109.5867,13.2544 109.7137,13.2544 L110.4217,13.2544 C110.5477,13.2544 110.6567,13.2084 110.7497,13.1164 C110.8417,13.0244 110.8877,12.9154 110.8877,12.7884 L110.8877,8.5594 L114.0627,8.5594 C114.8337,8.5594 115.5327,8.4214 116.1597,8.1454 C116.7867,7.8694 117.2877,7.4494 117.6617,6.8854 C118.0357,6.3214 118.2227,5.6374 118.2227,4.8314 C118.2227,3.6354 117.8287,2.7264 117.0407,2.1054" id="Fill-19" fill="#010202"></path>
                </g>
            </g>
        </g>
    </g>
</svg>
